<?xml version="1.0" encoding="utf-8"?>
<!-- Generator: Adobe Illustrator 16.0.0, SVG Export Plug-In . SVG Version: 6.00 Build 0)  -->
<!DOCTYPE svg PUBLIC "-//W3C//DTD SVG 1.1//EN" "http://www.w3.org/Graphics/SVG/1.1/DTD/svg11.dtd">
<svg version="1.1" id="Layer_1" xmlns="http://www.w3.org/2000/svg" xmlns:xlink="http://www.w3.org/1999/xlink" x="0px" y="0px"
	 width="432px" height="216px" viewBox="0 0 432 216" enable-background="new 0 0 432 216" xml:space="preserve">
<path fill="#FFFFFF" d="M345,75h-17V60h-32l-15,15h-16l-9,8v-8h-14V60h-56v15h-68l-15-15H72v66.091L87,141l25,15h21v-4l8,4h40l7-9
	l1,9h26l1-9l9,9h24l1-9l8,9h26l9-9v9h14l12-9v9h16l25-17V90L345,75z M112,100H96v16h16v18H90l-11-11V67h17v15h16V100z M186,122
	l-12,12h-56V82h18v34h7V82h18v34h7V82h18V122z M210,134h-18V82h18V134z M210,75h-18v-8h18V75z M250,100h-15v16h15v18h-22l-11-11V67
	h18v15h15V100z M296,100h-22v16h22v18h-28l-11-11V93l11-11h28V100z M353,134h-17v-34h-16v34h-17V67h17v15h22l11,11V134z"/>
</svg>
